<svg width="115" height="19" viewBox="0 0 115 19" fill="none" xmlns="http://www.w3.org/2000/svg">
<path d="M23.7609 8.71777H22.1758V10.3029H23.7609V8.71777Z" fill="white"/>
<path d="M54.4152 8.71777H52.8301V10.3029H54.4152V8.71777Z" fill="white"/>
<path d="M89.1066 8.71777H87.5215V10.3029H89.1066V8.71777Z" fill="white"/>
<path d="M97.0332 0H100.052L105.871 13.0688H105.926L111.746 0H114.791V18.9795H111.773V6.29036H111.718L106.932 16.5664H104.865L100.106 6.29036H100.052V18.9795H97.0332V0Z" fill="white"/>
<path d="M62.3379 13.5222V18.771L70.5899 10.4975H65.3991L62.3379 13.5222Z" fill="white"/>
<path d="M71.2996 10.4975L79.5516 18.7709V13.5222L76.4904 10.4975H71.2996Z" fill="white"/>
<path d="M71.2997 8.31789H76.5348L79.596 5.24872V0L71.2997 8.31789ZM78.9749 4.98184L76.2686 7.69516H72.675L78.9749 1.3789V4.98184Z" fill="white"/>
<path d="M62.3379 5.24872L65.3991 8.31789H70.5899L62.3379 0V5.24872Z" fill="white"/>
<path d="M31.7963 14.9938L41.6407 5.82943V3.74168L40.5801 2.71136H35.9027L34.8421 3.74168V5.50406H31.6875V2.7927L34.4885 0H41.9943L44.7953 2.7927V6.75129L35.0324 15.7259V16.2953H44.9041V18.9795H31.7963V14.9938Z" fill="white"/>
<path d="M0 15.9699V3.00961L3.0186 0H11.2314L14.25 3.00961V15.9699L11.2314 18.9795H3.0186L0 15.9699ZM9.76287 16.2682L11.0954 14.9667V4.01281L9.76287 2.71136H4.48711L3.15458 4.01281V14.9667L4.48711 16.2682H9.76287Z" fill="white"/>
</svg>
