<svg width="32" height="31" viewBox="0 0 32 31" fill="none" xmlns="http://www.w3.org/2000/svg">
<path d="M9.09431 18.37V22.2604L15.6959 16.1281H11.5433L9.09431 18.37Z" fill="white"/>
<path d="M16.2637 16.1281L22.8653 22.2604V18.37L20.4163 16.1281H16.2637Z" fill="white"/>
<path d="M16.2637 14.5125H20.4518L22.9008 12.2376V8.34725L16.2637 14.5125ZM22.4039 12.0398L20.2389 14.051H17.364L22.4039 9.3693V12.0398Z" fill="white"/>
<path d="M9.09431 12.2376L11.5433 14.5125H15.6959L9.09431 8.34725V12.2376Z" fill="white"/>
<path d="M16.2283 0.43457H15.6959V0.929113H16.2283V0.43457Z" fill="white"/>
<path d="M16.2283 29.6785H15.6959V30.1731H16.2283V29.6785Z" fill="white"/>
<path d="M32 15.5577V15.0632H31.4676V15.5577H32Z" fill="white"/>
<path d="M0.532387 15.5445V15.0499H0V15.5445H0.532387Z" fill="white"/>
<path d="M27.4849 4.96851L27.1085 4.61881L26.732 4.96851L27.1085 5.3182L27.4849 4.96851Z" fill="white"/>
<path d="M5.23028 25.6378L4.85383 25.2881L4.47738 25.6378L4.85383 25.9875L5.23028 25.6378Z" fill="white"/>
<path d="M27.1065 25.9892L27.483 25.6395L27.1065 25.2898L26.7301 25.6395L27.1065 25.9892Z" fill="white"/>
<path d="M4.85906 5.31992L5.23551 4.97023L4.85906 4.62054L4.48261 4.97023L4.85906 5.31992Z" fill="white"/>
<path d="M22.2334 1.63011L21.7401 1.44417L21.5399 1.90241L22.0332 2.08836L22.2334 1.63011Z" fill="white"/>
<path d="M10.4211 28.7038L9.92776 28.5179L9.72758 28.9761L10.2209 29.1621L10.4211 28.7038Z" fill="white"/>
<path d="M30.7188 21.1159L30.919 20.6576L30.4257 20.4717L30.2255 20.9299L30.7188 21.1159Z" fill="white"/>
<path d="M1.54025 10.1369L1.74043 9.67868L1.24712 9.49273L1.04694 9.95098L1.54025 10.1369Z" fill="white"/>
<path d="M30.8213 9.75105L30.614 9.29552L30.1237 9.48805L30.3309 9.94357L30.8213 9.75105Z" fill="white"/>
<path d="M1.83831 21.1182L1.63105 20.6627L1.14067 20.8552L1.34793 21.3107L1.83831 21.1182Z" fill="white"/>
<path d="M21.9682 29.0844L22.4586 28.8919L22.2514 28.4364L21.761 28.6289L21.9682 29.0844Z" fill="white"/>
<path d="M9.71486 2.1733L10.2052 1.98078L9.99798 1.52525L9.5076 1.71778L9.71486 2.1733Z" fill="white"/>
<path d="M19.3622 0.782972L18.8401 0.686239L18.7359 1.17124L19.2581 1.26797L19.3622 0.782972Z" fill="white"/>
<path d="M13.2247 29.437L12.7025 29.3402L12.5984 29.8252L13.1205 29.922L13.2247 29.437Z" fill="white"/>
<path d="M31.6298 18.4475L31.7339 17.9625L31.2118 17.8658L31.1077 18.3508L31.6298 18.4475Z" fill="white"/>
<path d="M0.752375 12.7426L0.85651 12.2576L0.334398 12.1609L0.230263 12.6459L0.752375 12.7426Z" fill="white"/>
<path d="M29.4433 7.24565L29.1478 6.83429L28.7049 7.10881L29.0004 7.52017L29.4433 7.24565Z" fill="white"/>
<path d="M3.28463 23.4797L2.9891 23.0683L2.54626 23.3428L2.84179 23.7542L3.28463 23.4797Z" fill="white"/>
<path d="M24.6656 27.7976L25.1085 27.523L24.8129 27.1117L24.3701 27.3862L24.6656 27.7976Z" fill="white"/>
<path d="M7.18202 3.47782L7.62486 3.20329L7.32933 2.79193L6.88649 3.06645L7.18202 3.47782Z" fill="white"/>
<path d="M24.9997 3.01369L24.5551 2.74169L24.2623 3.15474L24.7069 3.42674L24.9997 3.01369Z" fill="white"/>
<path d="M7.67036 27.4352L7.22571 27.1632L6.9329 27.5762L7.37755 27.8482L7.67036 27.4352Z" fill="white"/>
<path d="M29.2021 23.6993L29.4949 23.2863L29.0502 23.0143L28.7574 23.4273L29.2021 23.6993Z" fill="white"/>
<path d="M2.94339 7.61363L3.2362 7.20059L2.79155 6.92859L2.49874 7.34164L2.94339 7.61363Z" fill="white"/>
<path d="M31.7038 12.526L31.5965 12.0416L31.075 12.1413L31.1823 12.6257L31.7038 12.526Z" fill="white"/>
<path d="M0.879001 18.4331L0.771671 17.9487L0.250198 18.0484L0.357527 18.5328L0.879001 18.4331Z" fill="white"/>
<path d="M18.9499 29.934L19.4714 29.8343L19.364 29.3499L18.8426 29.4496L18.9499 29.934Z" fill="white"/>
<path d="M12.6079 1.29103L13.1293 1.19133L13.022 0.706924L12.5005 0.806624L12.6079 1.29103Z" fill="white"/>
<path d="M17.8539 0.525311L17.3242 0.475214L17.2703 0.967234L17.7999 1.01733L17.8539 0.525311Z" fill="white"/>
<path d="M14.6594 29.6052L14.1298 29.5551L14.0758 30.0472L14.6055 30.0973L14.6594 29.6052Z" fill="white"/>
<path d="M31.8887 17.0411L31.9426 16.549L31.413 16.499L31.359 16.991L31.8887 17.0411Z" fill="white"/>
<path d="M0.589167 14.0807L0.643098 13.5887L0.113426 13.5386L0.0594949 14.0306L0.589167 14.0807Z" fill="white"/>
<path d="M28.5589 6.09287L28.2225 5.70955L27.8099 6.022L28.1462 6.40532L28.5589 6.09287Z" fill="white"/>
<path d="M4.17904 24.5626L3.84267 24.1793L3.43002 24.4918L3.76638 24.8751L4.17904 24.5626Z" fill="white"/>
<path d="M25.9056 26.9707L26.3183 26.6583L25.9819 26.275L25.5693 26.5874L25.9056 26.9707Z" fill="white"/>
<path d="M6.01221 4.31308L6.42486 4.00062L6.0885 3.6173L5.67585 3.92976L6.01221 4.31308Z" fill="white"/>
<path d="M23.7015 2.29186L23.231 2.06046L22.9819 2.49754L23.4524 2.72893L23.7015 2.29186Z" fill="white"/>
<path d="M8.98244 28.1093L8.51192 27.878L8.26281 28.315L8.73334 28.5464L8.98244 28.1093Z" fill="white"/>
<path d="M30.0013 22.4713L30.2504 22.0342L29.7799 21.8028L29.5308 22.2399L30.0013 22.4713Z" fill="white"/>
<path d="M2.1855 8.80875L2.43461 8.37167L1.96408 8.14027L1.71498 8.57735L2.1855 8.80875Z" fill="white"/>
<path d="M31.3556 11.1616L31.1991 10.6889L30.6903 10.8343L30.8468 11.307L31.3556 11.1616Z" fill="white"/>
<path d="M1.27285 19.772L1.11633 19.2993L0.607471 19.4447L0.763993 19.9174L1.27285 19.772Z" fill="white"/>
<path d="M20.4299 29.5918L20.9388 29.4464L20.7822 28.9737L20.2734 29.1191L20.4299 29.5918Z" fill="white"/>
<path d="M11.1834 1.63684L11.6923 1.49145L11.5357 1.01877L11.0269 1.16416L11.1834 1.63684Z" fill="white"/>
<path d="M20.9418 1.17819L20.4329 1.03284L20.2765 1.50552L20.7853 1.65087L20.9418 1.17819Z" fill="white"/>
<path d="M11.6846 29.0997L11.1758 28.9543L11.0193 29.427L11.5282 29.5723L11.6846 29.0997Z" fill="white"/>
<path d="M31.1946 19.9004L31.3511 19.4277L30.8422 19.2824L30.6858 19.7551L31.1946 19.9004Z" fill="white"/>
<path d="M1.12459 11.3263L1.28106 10.8536L0.772202 10.7083L0.615734 11.181L1.12459 11.3263Z" fill="white"/>
<path d="M30.2413 8.55739L29.9922 8.12036L29.5217 8.35181L29.7709 8.78884L30.2413 8.55739Z" fill="white"/>
<path d="M2.44091 22.2536L2.19175 21.8166L1.72128 22.048L1.97044 22.4851L2.44091 22.2536Z" fill="white"/>
<path d="M23.2406 28.5629L23.7111 28.3315L23.4619 27.8944L22.9914 28.1259L23.2406 28.5629Z" fill="white"/>
<path d="M8.50482 2.71571L8.97529 2.48426L8.72613 2.04723L8.25566 2.27868L8.50482 2.71571Z" fill="white"/>
<path d="M26.2783 3.93101L25.8656 3.61856L25.5292 4.00193L25.9419 4.31438L26.2783 3.93101Z" fill="white"/>
<path d="M6.40541 26.5863L5.9927 26.2738L5.65634 26.6572L6.06904 26.9696L6.40541 26.5863Z" fill="white"/>
<path d="M28.2335 24.8951L28.5699 24.5117L28.1572 24.1992L27.8208 24.5826L28.2335 24.8951Z" fill="white"/>
<path d="M3.83311 6.43142L4.16947 6.04805L3.75676 5.7356L3.4204 6.11897L3.83311 6.43142Z" fill="white"/>
<path d="M31.9455 14.0226L31.8915 13.5306L31.3619 13.5808L31.4159 14.0727L31.9455 14.0226Z" fill="white"/>
<path d="M0.635916 16.9894L0.581932 16.4974L0.0523133 16.5475L0.106297 17.0395L0.635916 16.9894Z" fill="white"/>
<path d="M17.3578 30.1339L17.8874 30.0837L17.8334 29.5918L17.3038 29.6419L17.3578 30.1339Z" fill="white"/>
<path d="M14.1711 1.05081L14.7008 1.00066L14.6468 0.50869L14.1172 0.558837L14.1711 1.05081Z" fill="white"/>
</svg>
