<svg width="115" height="115" viewBox="0 0 115 115" fill="none" xmlns="http://www.w3.org/2000/svg">
<path d="M32.6827 69.3572V84.4016L56.4072 60.6876H41.4837L32.6827 69.3572Z" fill="#1D1E20"/>
<path d="M58.4476 60.6876L82.1721 84.4015V69.3572L73.3711 60.6876H58.4476Z" fill="#1D1E20"/>
<path d="M58.4478 54.4401H73.4988L82.2998 45.643V30.5986L58.4478 54.4401ZM80.5141 44.878L72.7335 52.6552H62.4019L80.5141 34.551V44.878Z" fill="#1D1E20"/>
<path d="M32.6827 45.643L41.4837 54.4401H56.4072L32.6827 30.5986V45.643Z" fill="#1D1E20"/>
<path d="M58.3204 0H56.4071V1.91242H58.3204V0Z" fill="#1D1E20"/>
<path d="M58.3204 113.088H56.4071V115H58.3204V113.088Z" fill="#1D1E20"/>
<path d="M115 58.4819V56.5695H113.087V58.4819H115Z" fill="#1D1E20"/>
<path d="M1.91327 58.4305V56.5181H0V58.4305H1.91327Z" fill="#1D1E20"/>
<path d="M98.774 17.5329L97.4211 16.1806L96.0682 17.5329L97.4211 18.8852L98.774 17.5329Z" fill="#1D1E20"/>
<path d="M18.7963 97.4618L17.4435 96.1095L16.0906 97.4618L17.4435 98.8141L18.7963 97.4618Z" fill="#1D1E20"/>
<path d="M97.414 98.8207L98.7669 97.4685L97.414 96.1162L96.0612 97.4685L97.414 98.8207Z" fill="#1D1E20"/>
<path d="M17.4622 18.8919L18.8151 17.5396L17.4622 16.1873L16.1094 17.5396L17.4622 18.8919Z" fill="#1D1E20"/>
<path d="M79.9013 4.62321L78.1285 3.90415L77.4091 5.67619L79.182 6.39526L79.9013 4.62321Z" fill="#1D1E20"/>
<path d="M37.4507 109.318L35.6779 108.599L34.9585 110.371L36.7313 111.09L37.4507 109.318Z" fill="#1D1E20"/>
<path d="M110.396 79.9754L111.115 78.2034L109.342 77.4843L108.623 79.2564L110.396 79.9754Z" fill="#1D1E20"/>
<path d="M5.53528 37.5194L6.25467 35.7474L4.48183 35.0283L3.76244 36.8003L5.53528 37.5194Z" fill="#1D1E20"/>
<path d="M110.764 36.0272L110.019 34.2657L108.257 35.0102L109.002 36.7717L110.764 36.0272Z" fill="#1D1E20"/>
<path d="M6.60643 79.9844L5.8616 78.2229L4.09929 78.9674L4.84412 80.7289L6.60643 79.9844Z" fill="#1D1E20"/>
<path d="M78.9484 110.79L80.7107 110.046L79.9659 108.284L78.2036 109.029L78.9484 110.79Z" fill="#1D1E20"/>
<path d="M34.9128 6.72375L36.6751 5.97925L35.9302 4.21772L34.1679 4.96222L34.9128 6.72375Z" fill="#1D1E20"/>
<path d="M69.5829 1.34728L67.7065 0.973215L67.3323 2.84872L69.2086 3.22279L69.5829 1.34728Z" fill="#1D1E20"/>
<path d="M47.5261 112.154L45.6498 111.779L45.2755 113.655L47.1519 114.029L47.5261 112.154Z" fill="#1D1E20"/>
<path d="M113.67 69.6568L114.044 67.7813L112.168 67.4073L111.793 69.2828L113.67 69.6568Z" fill="#1D1E20"/>
<path d="M2.70385 47.5957L3.07808 45.7202L1.20174 45.3461L0.827508 47.2216L2.70385 47.5957Z" fill="#1D1E20"/>
<path d="M105.812 26.3387L104.75 24.748L103.158 25.8096L104.22 27.4003L105.812 26.3387Z" fill="#1D1E20"/>
<path d="M11.8041 89.1163L10.7421 87.5255L9.15063 88.5871L10.2127 90.1779L11.8041 89.1163Z" fill="#1D1E20"/>
<path d="M88.6421 105.814L90.2335 104.752L89.1715 103.161L87.58 104.223L88.6421 105.814Z" fill="#1D1E20"/>
<path d="M25.8104 11.7684L27.4018 10.7068L26.3398 9.11602L24.7483 10.1776L25.8104 11.7684Z" fill="#1D1E20"/>
<path d="M89.8427 9.97357L88.2448 8.92175L87.1925 10.519L88.7904 11.5708L89.8427 9.97357Z" fill="#1D1E20"/>
<path d="M27.5654 104.412L25.9674 103.361L24.9151 104.958L26.5131 106.01L27.5654 104.412Z" fill="#1D1E20"/>
<path d="M104.945 89.9656L105.997 88.3684L104.399 87.3166L103.347 88.9138L104.945 89.9656Z" fill="#1D1E20"/>
<path d="M10.5778 27.7617L11.6301 26.1645L10.0321 25.1127L8.97984 26.7099L10.5778 27.7617Z" fill="#1D1E20"/>
<path d="M113.935 46.7582L113.55 44.885L111.676 45.2705L112.061 47.1437L113.935 46.7582Z" fill="#1D1E20"/>
<path d="M3.15891 69.6012L2.77319 67.728L0.899149 68.1135L1.28486 69.9868L3.15891 69.6012Z" fill="#1D1E20"/>
<path d="M68.1012 114.076L69.9752 113.69L69.5895 111.817L67.7155 112.202L68.1012 114.076Z" fill="#1D1E20"/>
<path d="M45.3095 3.31196L47.1835 2.92642L46.7978 1.0532L44.9238 1.43875L45.3095 3.31196Z" fill="#1D1E20"/>
<path d="M64.1624 0.350898L62.2589 0.15717L62.0651 2.05983L63.9686 2.25356L64.1624 0.350898Z" fill="#1D1E20"/>
<path d="M52.6824 112.804L50.7789 112.61L50.5851 114.513L52.4886 114.707L52.6824 112.804Z" fill="#1D1E20"/>
<path d="M114.6 64.218L114.794 62.3154L112.89 62.1216L112.697 64.0243L114.6 64.218Z" fill="#1D1E20"/>
<path d="M2.11732 52.7703L2.31113 50.8676L0.407624 50.6739L0.21381 52.5765L2.11732 52.7703Z" fill="#1D1E20"/>
<path d="M102.634 21.8809L101.425 20.3986L99.9417 21.6068L101.151 23.0891L102.634 21.8809Z" fill="#1D1E20"/>
<path d="M15.0184 93.3042L13.8096 91.8219L12.3266 93.0302L13.5354 94.5125L15.0184 93.3042Z" fill="#1D1E20"/>
<path d="M93.0983 102.616L94.5813 101.408L93.3725 99.9259L91.8895 101.134L93.0983 102.616Z" fill="#1D1E20"/>
<path d="M21.6064 14.9983L23.0893 13.7901L21.8805 12.3078L20.3976 13.516L21.6064 14.9983Z" fill="#1D1E20"/>
<path d="M85.1773 7.1822L83.4863 6.28738L82.5911 7.97757L84.282 8.87239L85.1773 7.1822Z" fill="#1D1E20"/>
<path d="M32.2806 107.02L30.5897 106.125L29.6945 107.815L31.3854 108.71L32.2806 107.02Z" fill="#1D1E20"/>
<path d="M107.817 85.2168L108.712 83.5266L107.021 82.6318L106.126 84.322L107.817 85.2168Z" fill="#1D1E20"/>
<path d="M7.85415 32.3833L8.74937 30.6931L7.05843 29.7983L6.16321 31.4885L7.85415 32.3833Z" fill="#1D1E20"/>
<path d="M112.684 41.4819L112.122 39.6541L110.293 40.2163L110.856 42.0442L112.684 41.4819Z" fill="#1D1E20"/>
<path d="M4.5743 74.7786L4.0118 72.9507L2.1831 73.513L2.7456 75.3409L4.5743 74.7786Z" fill="#1D1E20"/>
<path d="M73.4199 112.752L75.2486 112.19L74.6861 110.362L72.8574 110.924L73.4199 112.752Z" fill="#1D1E20"/>
<path d="M40.1903 4.64924L42.019 4.08699L41.4565 2.25911L39.6278 2.82136L40.1903 4.64924Z" fill="#1D1E20"/>
<path d="M75.2596 2.8756L73.4309 2.31354L72.8686 4.14142L74.6973 4.70348L75.2596 2.8756Z" fill="#1D1E20"/>
<path d="M41.9916 110.849L40.1629 110.287L39.6006 112.115L41.4293 112.677L41.9916 110.849Z" fill="#1D1E20"/>
<path d="M112.106 75.2753L112.668 73.4474L110.839 72.8853L110.277 74.7132L112.106 75.2753Z" fill="#1D1E20"/>
<path d="M4.04149 42.1188L4.6038 40.2909L2.7751 39.7289L2.21279 41.5567L4.04149 42.1188Z" fill="#1D1E20"/>
<path d="M108.68 31.4113L107.784 29.7213L106.094 30.6163L106.989 32.3063L108.68 31.4113Z" fill="#1D1E20"/>
<path d="M8.77201 84.3752L7.87661 82.6851L6.18585 83.5802L7.08126 85.2702L8.77201 84.3752Z" fill="#1D1E20"/>
<path d="M83.5209 108.773L85.2117 107.878L84.3163 106.188L82.6255 107.083L83.5209 108.773Z" fill="#1D1E20"/>
<path d="M30.5642 8.82125L32.255 7.92624L31.3595 6.23624L29.6688 7.13125L30.5642 8.82125Z" fill="#1D1E20"/>
<path d="M94.4376 13.5209L92.9544 12.3126L91.7456 13.7951L93.2288 15.0034L94.4376 13.5209Z" fill="#1D1E20"/>
<path d="M23.0194 101.13L21.5363 99.9214L20.3275 101.404L21.8106 102.612L23.0194 101.13Z" fill="#1D1E20"/>
<path d="M101.464 94.5897L102.673 93.1072L101.19 91.8989L99.9809 93.3814L101.464 94.5897Z" fill="#1D1E20"/>
<path d="M13.7752 23.1901L14.984 21.7076L13.5009 20.4993L12.2921 21.9818L13.7752 23.1901Z" fill="#1D1E20"/>
<path d="M114.804 52.5455L114.61 50.643L112.707 50.8369L112.901 52.7394L114.804 52.5455Z" fill="#1D1E20"/>
<path d="M2.28532 64.0181L2.09132 62.1156L0.188001 62.3095L0.382006 64.212L2.28532 64.0181Z" fill="#1D1E20"/>
<path d="M62.3796 114.848L64.2829 114.655L64.0889 112.752L62.1856 112.946L62.3796 114.848Z" fill="#1D1E20"/>
<path d="M50.9275 2.38302L52.8308 2.1891L52.6368 0.286626L50.7335 0.480545L50.9275 2.38302Z" fill="#1D1E20"/>
</svg>
